<?xml version="1.0" encoding="utf-8"?>
<!-- Generator: Adobe Illustrator 18.0.0, SVG Export Plug-In . SVG Version: 6.00 Build 0)  -->
<!DOCTYPE svg PUBLIC "-//W3C//DTD SVG 1.1//EN" "http://www.w3.org/Graphics/SVG/1.1/DTD/svg11.dtd">
<svg version="1.1" id="Layer_1" xmlns="http://www.w3.org/2000/svg" xmlns:xlink="http://www.w3.org/1999/xlink" x="0px" y="0px"
	 viewBox="0.2 1.1 343.4 75.4" enable-background="new 0.2 1.1 343.4 75.4" xml:space="preserve">
<g>
	<g>
		<g>
			<path fill="#9C9B9B" d="M66.6,33.9c-2.1-4-7.1-5.5-11.1-3.4c-2.5,1.3-4,3.8-4.3,6.4c-0.7,5.4-3.9,10.5-9.1,13.2
				c-8.5,4.5-19,1.3-23.5-7.2c-4.5-8.5-1.3-19,7.2-23.5c5.2-2.8,11.2-2.6,16-0.2c0.1,0,0.2,0.1,0.3,0.1c0,0,0.1,0,0.1,0l0,0
				c2.3,1.1,5,1.1,7.4-0.2c4-2.1,5.5-7.1,3.4-11.1c-0.8-1.6-2.1-2.7-3.6-3.5l0,0C39.9,0,28.2-0.3,18.1,5.1
				C1.6,13.9-4.6,34.4,4.2,50.8C13,67.2,33.4,73.5,49.9,64.7c9.9-5.3,16.1-14.8,17.5-25.1C67.8,37.7,67.6,35.7,66.6,33.9z"/>
			<path fill="#C6C6C5" d="M65.6,4c-3.8,2.1-6.2,5.9-6.5,9.9c-0.4,4.2-2.9,8.1-6.9,10.2c-3.7,2-7.9,2-11.4,0.4
				c-3.7-2.4-8.5-2.8-12.6-0.6c-6,3.2-8.3,10.7-5.1,16.7c3.2,6,10.7,8.3,16.7,5.1c3.9-2.1,6.2-5.9,6.5-10c0.5-4.1,2.9-7.8,6.8-9.9
				c4-2.1,8.6-2,12.3,0l0,0c3.5,1.9,7.9,2.1,11.7,0c6-3.2,8.3-10.7,5.1-16.7C79.2,3.1,71.7,0.8,65.6,4z"/>
		</g>
	</g>
	<g>
		<path fill="#B1B1B1" d="M86.4,67.3c-2.8,0-5.4-1.2-7.6-3.7c-2.2-2.4-3.3-5.5-3.3-9.1s1.1-6.6,3.2-8.9c2.2-2.3,4.7-3.5,7.6-3.5
			c2.9,0,5.3,1,7.1,3.1v-12h6.7v33.6h-6.7v-3.2C91.5,66.1,89.2,67.3,86.4,67.3z M82.2,54.8c0,2,0.6,3.6,1.7,4.8
			c1.2,1.3,2.5,1.9,4,1.9c1.5,0,2.8-0.6,3.9-1.9c1.1-1.3,1.6-2.9,1.6-4.8s-0.5-3.6-1.6-4.9c-1.1-1.3-2.4-2-4-2s-2.9,0.7-4,2
			C82.7,51.2,82.2,52.8,82.2,54.8z"/>
		<path fill="#B1B1B1" d="M121.8,55.7V42.6h6.7v24.4h-6.7v-3.2c-1.7,2.4-3.8,3.6-6.4,3.6s-4.8-0.8-6.6-2.5c-1.8-1.7-2.7-4.2-2.7-7.4
			V42.6h6.7v13.3c0,3.7,1.3,5.6,4,5.6c1.3,0,2.5-0.5,3.5-1.5C121.3,59,121.8,57.6,121.8,55.7z"/>
		<path fill="#B1B1B1" d="M156.7,53.8v13.1H150V53.6c0-1.9-0.3-3.4-0.9-4.3s-1.5-1.4-2.8-1.4s-2.4,0.5-3.4,1.5c-1,1-1.5,2.4-1.5,4.3
			v13.1h-6.7V42.6h6.7v2.8c1.8-2.1,3.9-3.2,6.3-3.2c1.5,0,2.9,0.5,4.1,1.4s2.2,2,2.8,3.3c0.9-1.5,2.2-2.6,3.7-3.4
			c1.6-0.8,3.1-1.2,4.7-1.2c2.8,0,5.1,0.9,6.8,2.6c1.7,1.7,2.6,4.2,2.6,7.4v14.8h-6.7V53.6c0-3.7-1.3-5.6-4-5.6
			c-1.3,0-2.5,0.5-3.5,1.5C157.2,50.5,156.7,51.9,156.7,53.8z"/>
		<path fill="#B1B1B1" d="M200.4,53.8v13.1h-6.7V53.6c0-1.9-0.3-3.4-0.9-4.3S191.3,48,190,48s-2.4,0.5-3.4,1.5c-1,1-1.5,2.4-1.5,4.3
			v13.1h-6.7V42.6h6.7v2.8c1.8-2.1,3.9-3.2,6.3-3.2c1.5,0,2.9,0.5,4.1,1.4s2.2,2,2.8,3.3c0.9-1.5,2.2-2.6,3.7-3.4
			c1.6-0.8,3.1-1.2,4.7-1.2c2.8,0,5.1,0.9,6.8,2.6c1.7,1.7,2.6,4.2,2.6,7.4v14.8h-6.7V53.6c0-3.7-1.3-5.6-4-5.6
			c-1.3,0-2.5,0.5-3.5,1.5C200.9,50.5,200.4,51.9,200.4,53.8z"/>
		<path fill="#B1B1B1" d="M226.2,76.5c-2.3,0-4.5-1-6.6-2.9l3-5c1.1,1.1,2.3,1.7,3.5,1.7c0.6,0,1.2-0.3,1.6-0.9
			c0.4-0.6,0.7-1.3,0.7-2c0-0.7-3.1-9-9.2-24.8h7.1l5.8,15.2l5.8-15.2h7.1l-11.1,28.7c-0.7,1.7-1.7,3-3,3.9
			C229.4,76.1,227.9,76.5,226.2,76.5z"/>
		<path fill="#868686" d="M255,66.9h-6.7V33.3h6.7V66.9z"/>
		<path fill="#868686" d="M285.1,54.8c0,3.5-1.2,6.5-3.6,8.9c-2.4,2.4-5.4,3.6-9,3.6c-3.6,0-6.6-1.2-9-3.6c-2.4-2.4-3.6-5.4-3.6-8.9
			s1.2-6.5,3.6-8.9c2.4-2.4,5.4-3.6,9-3.6c3.6,0,6.6,1.2,9,3.6C284,48.2,285.1,51.2,285.1,54.8z M266.6,54.8c0,2,0.6,3.6,1.7,4.9
			c1.1,1.3,2.5,1.9,4.3,1.9c1.7,0,3.2-0.6,4.3-1.9c1.1-1.3,1.7-2.9,1.7-4.9c0-2-0.6-3.6-1.7-4.9c-1.1-1.3-2.5-1.9-4.3-1.9
			c-1.7,0-3.2,0.6-4.3,1.9S266.6,52.8,266.6,54.8z"/>
		<path fill="#868686" d="M307.8,62.8c-2.1,2.4-4.7,3.6-7.8,3.6c-3.1,0-5.8-1.1-7.9-3.2c-2.1-2.2-3.2-5-3.2-8.6s1.1-6.6,3.3-8.9
			c2.2-2.3,4.7-3.5,7.6-3.5c2.8,0,5.2,1.2,7.1,3.6v-3.2h6.7v21.2c0,2.2-0.4,4.1-1.1,5.8c-0.7,1.7-1.7,3-3,4c-2.5,2-5.4,3-8.7,3
			c-1.8,0-3.6-0.3-5.4-0.9c-1.9-0.6-3.5-1.4-4.9-2.5l2.6-5.1c2.2,1.7,4.5,2.5,7,2.5s4.4-0.6,5.8-1.9C307,67.5,307.8,65.5,307.8,62.8
			z M306.8,54.2c0-1.9-0.5-3.5-1.6-4.6c-1.1-1.1-2.4-1.7-4-1.7c-1.6,0-2.9,0.6-4.1,1.7c-1.1,1.1-1.7,2.6-1.7,4.6
			c0,1.9,0.6,3.5,1.7,4.7c1.1,1.2,2.5,1.8,4.1,1.8s2.9-0.6,4-1.8C306.3,57.7,306.8,56.2,306.8,54.2z"/>
		<path fill="#868686" d="M343.6,54.8c0,3.5-1.2,6.5-3.6,8.9c-2.4,2.4-5.4,3.6-9,3.6c-3.6,0-6.6-1.2-9-3.6c-2.4-2.4-3.6-5.4-3.6-8.9
			s1.2-6.5,3.6-8.9c2.4-2.4,5.4-3.6,9-3.6c3.6,0,6.6,1.2,9,3.6C342.4,48.2,343.6,51.2,343.6,54.8z M325,54.8c0,2,0.6,3.6,1.7,4.9
			c1.1,1.3,2.5,1.9,4.3,1.9c1.7,0,3.2-0.6,4.3-1.9c1.1-1.3,1.7-2.9,1.7-4.9c0-2-0.6-3.6-1.7-4.9c-1.1-1.3-2.5-1.9-4.3-1.9
			c-1.7,0-3.2,0.6-4.3,1.9S325,52.8,325,54.8z"/>
	</g>
</g>
</svg>
