<svg  focusable="false"  tabIndex="-1" width="10px" height="10px" viewBox="0 0 10 10" version="1.1" xmlns="http://www.w3.org/2000/svg" xmlns:xlink="http://www.w3.org/1999/xlink">
    <!-- Generator: Sketch 46.2 (44496) - http://www.bohemiancoding.com/sketch -->
    <title>Close Icon</title>
    <defs></defs>
    <g stroke="none" stroke-width="1" fill="none" fill-rule="evenodd">
        <g transform="translate(-4.000000, -5.000000)" fill="#9B9B9B">
            <path d="M13.8560886,12.701107 L11.701107,14.8560886 C11.5092251,15.0479705 11.2140221,15.0479705 11.0221402,14.8560886 L9,12.8339483 L6.97785978,14.8560886 C6.78597786,15.0479705 6.49077491,15.0479705 6.29889299,14.8560886 L4.14391144,12.701107 C3.95202952,12.5092251 3.95202952,12.2140221 4.14391144,12.0221402 L6.16605166,10 L4.14391144,7.97785978 C3.95202952,7.78597786 3.95202952,7.49077491 4.14391144,7.29889299 L6.29889299,5.14391144 C6.49077491,4.95202952 6.78597786,4.95202952 6.97785978,5.14391144 L9,7.16605166 L11.0221402,5.14391144 C11.2140221,4.95202952 11.5092251,4.95202952 11.701107,5.14391144 L13.8560886,7.29889299 C14.0479705,7.49077491 14.0479705,7.78597786 13.8560886,7.97785978 L11.8339483,10 L13.8560886,12.0221402 C14.0479705,12.2140221 14.0479705,12.5092251 13.8560886,12.701107 Z" id="ïœ"></path>
        </g>
    </g>
</svg>