<svg  focusable="false"  tabIndex="-1" xmlns="http://www.w3.org/2000/svg" viewBox="0 0 53.17 58">
    <title>icons_glyphicon-lock</title>
    <path  d="M384.36,216.69a4.87,4.87,0,0,1,4.83,4.83v29a4.87,4.87,0,0,1-4.83,4.83h-43.5a4.87,4.87,0,0,1-4.83-4.83v-29a4.87,4.87,0,0,1,4.83-4.83h4.83V207a9.74,9.74,0,0,1,9.67-9.67h14.5a9.65,9.65,0,0,1,9.67,9.67v9.67h4.83Zm-14.5,0v-7.25a2.29,2.29,0,0,0-.72-1.72,2.36,2.36,0,0,0-1.69-.7h-9.67a2.36,2.36,0,0,0-1.69.7,2.29,2.29,0,0,0-.73,1.72v7.25h14.5Z" transform="translate(-336.03 -197.36)"/>
</svg>