<svg  focusable="false"  tabIndex="-1" xmlns="http://www.w3.org/2000/svg" viewBox="0 0 58 58">
<title>icons_glyphicon-menu-hamburger</title>
<path d="M550.06,200.36h47.5a1.28,1.28,0,0,1,1.25,1.25v7.5a1.28,1.28,0,0,1-1.25,1.25h-47.5a1.28,1.28,0,0,1-1.25-1.25v-7.5A1.28,1.28,0,0,1,550.06,200.36Zm0,20h47.5a1.28,1.28,0,0,1,1.25,1.25v7.5a1.28,1.28,0,0,1-1.25,1.25h-47.5a1.28,1.28,0,0,1-1.25-1.25v-7.5A1.28,1.28,0,0,1,550.06,220.36Zm0,20h47.5a1.28,1.28,0,0,1,1.25,1.25v7.5a1.28,1.28,0,0,1-1.25,1.25h-47.5a1.28,1.28,0,0,1-1.25-1.25v-7.5A1.28,1.28,0,0,1,550.06,240.36Z" transform="translate(-548.81 -200.36)"/>
</svg>