<svg  focusable="false"  tabIndex="-1" xmlns="http://www.w3.org/2000/svg" viewBox="0 0 58 58">
<title>icons_glyphicon-ok-sign</title>
<path class="cls-1" d="M448.55,200.8a28.86,28.86,0,0,1,22.52,0,28.42,28.42,0,0,1,15.45,15.45,28.86,28.86,0,0,1,0,22.52,28.42,28.42,0,0,1-15.45,15.45,28.86,28.86,0,0,1-22.52,0,28.42,28.42,0,0,1-15.45-15.45,28.85,28.85,0,0,1,0-22.52A28.42,28.42,0,0,1,448.55,200.8Zm8.54,25.56-4.22-4.27a1.19,1.19,0,0,0-.88-0.35,1.37,1.37,0,0,0-.93.35l-7,7a1.34,1.34,0,0,0,0,1.81L456.24,243a1.16,1.16,0,0,0,1.76,0l18.85-18.85a1.2,1.2,0,0,0,.35-0.88,1.37,1.37,0,0,0-.35-0.93l-7-7a1.28,1.28,0,0,0-1.76,0Z" transform="translate(-430.81 -198.51)"/>
</svg>