<svg  focusable="false"  tabIndex="-1" xmlns="http://www.w3.org/2000/svg" viewBox="0 0 58 58">
<title>icon-glyphicon-remove-circle</title>
<path d="M73.39,200.8a28.86,28.86,0,0,1,22.52,0,28.42,28.42,0,0,1,15.45,15.45,28.86,28.86,0,0,1,0,22.52A28.42,28.42,0,0,1,95.9,254.22a28.86,28.86,0,0,1-22.52,0,28.42,28.42,0,0,1-15.45-15.45,28.86,28.86,0,0,1,0-22.52A28.42,28.42,0,0,1,73.39,200.8Zm22,8.12a21.37,21.37,0,1,0,7.82,7.82A21.15,21.15,0,0,0,95.42,208.91Zm-2.79,7.39,3.22,3.22a1.28,1.28,0,0,1,0,1.76l-6.23,6.23,6.23,6.23a1.28,1.28,0,0,1,0,1.76l-3.22,3.22a1.28,1.28,0,0,1-1.76,0l-6.23-6.23-6.23,6.23a1.28,1.28,0,0,1-1.76,0l-3.22-3.22a1.28,1.28,0,0,1,0-1.76l6.23-6.23-6.23-6.23a1.28,1.28,0,0,1,0-1.76l3.22-3.22a1.28,1.28,0,0,1,1.76,0l6.23,6.23,6.23-6.23A1.28,1.28,0,0,1,92.64,216.3Z" transform="translate(-55.64 -198.51)"/>
</svg>