<svg  focusable="false"  tabIndex="-1" xmlns="http://www.w3.org/2000/svg" viewBox="0 0 58.12 58">
    <title>icons_glyphicon-search</title>
    <path d="M250.8,199.7a23.57,23.57,0,0,1,18.48,0,23.29,23.29,0,0,1,12.63,12.63,23.22,23.22,0,0,1,1.89,9.24l0,0.1,0,0.24A23,23,0,0,1,280,234.58l13.3,13.25a2.58,2.58,0,0,1,0,4.21l-2.85,2.81a3.87,3.87,0,0,1-2.25,1,2.65,2.65,0,0,1-1.91-1L273,241.59a22.77,22.77,0,0,1-12.63,3.72l-0.24,0-0.1,0a23.21,23.21,0,0,1-9.24-1.89,23.29,23.29,0,0,1-12.63-12.63,23.57,23.57,0,0,1,0-18.48A23.29,23.29,0,0,1,250.8,199.7Zm17.08,8.37a15.49,15.49,0,1,0,5.66,5.66A15.33,15.33,0,0,0,267.88,208.07Z" transform="translate(-236.29 -197.81)"/>
</svg>